# xmcd
#
# Track frame offsets:
# 150
# 14177
# 26207
# 39955
# 53555
# 68970
# 82377
# 96330
# 107347
# 126729
# 141775
# 157167
# 169875
# 183022
#
# Disc length: 2738 seconds
#
#
# Revision: 0
# Processed by: cddbd v1.5.2PL0 Copyright (c) Steve Scherf et al.
# Submitted via: FreeRIP 2.951 
#
DISCID=ca0ab00e
DTITLE=AS 100 MAIS SERTANEJAS
DYEAR=1900
DGENRE=SERTANEJA
TTITLE0=FESTA DE PEAO
TTITLE1=SAPATEIA, GALERA
TTITLE2=APAZIGUAR
TTITLE3=TA NERVOSO...VAI PESCAR
TTITLE4=BEBO PA CARAI
TTITLE5=SE TIVER MULHER NOIS VAI
TTITLE6=O GRITO DA GALERA
TTITLE7=GARANHAO DA MADRUGADA
TTITLE8=A JERIPOCA VAI PIAR
TTITLE9=NAO TO NEM AI
TTITLE10=O BICHO VAI PEGAR
TTITLE11=PRA LA QUE EU VOU
TTITLE12=SOU FEIO MAS TO NA MODA
TTITLE13=A GENTE SE ENTREGA - ENTRA NA ARENA
EXTD=
EXTT0=
EXTT1=
EXTT2=
EXTT3=
EXTT4=
EXTT5=
EXTT6=
EXTT7=
EXTT8=
EXTT9=
EXTT10=
EXTT11=
EXTT12=
EXTT13=
PLAYORDER=
